<mxfile host="65bd71144e" pages="1">
    <diagram id="R2lEEEUBdFMjLlhIrx00" name="Page-1">
        <mxGraphModel dx="1028" dy="785" grid="1" gridSize="10" guides="1" tooltips="1" connect="1" arrows="1" fold="1" page="1" pageScale="1" pageWidth="850" pageHeight="1100" math="0" shadow="0">
            <root>
                <mxCell id="0"/>
                <mxCell id="1" parent="0"/>
                <mxCell id="macZc3DusFHGocfkwywF-16" style="edgeStyle=orthogonalEdgeStyle;rounded=0;orthogonalLoop=1;jettySize=auto;html=1;entryX=0;entryY=0.5;entryDx=0;entryDy=0;endArrow=none;endFill=0;exitX=0.5;exitY=0.5;exitDx=0;exitDy=0;exitPerimeter=0;" parent="1" source="macZc3DusFHGocfkwywF-1" target="macZc3DusFHGocfkwywF-11" edge="1">
                    <mxGeometry relative="1" as="geometry">
                        <Array as="points">
                            <mxPoint x="140" y="590"/>
                            <mxPoint x="140" y="480"/>
                            <mxPoint x="210" y="480"/>
                            <mxPoint x="210" y="590"/>
                        </Array>
                    </mxGeometry>
                </mxCell>
                <mxCell id="macZc3DusFHGocfkwywF-20" style="edgeStyle=orthogonalEdgeStyle;rounded=0;orthogonalLoop=1;jettySize=auto;html=1;entryX=0;entryY=0.5;entryDx=0;entryDy=0;exitX=0.5;exitY=0.5;exitDx=0;exitDy=0;exitPerimeter=0;endArrow=none;endFill=0;" parent="1" source="macZc3DusFHGocfkwywF-1" target="macZc3DusFHGocfkwywF-14" edge="1">
                    <mxGeometry relative="1" as="geometry">
                        <Array as="points">
                            <mxPoint x="160" y="590"/>
                            <mxPoint x="160" y="720"/>
                        </Array>
                    </mxGeometry>
                </mxCell>
                <mxCell id="macZc3DusFHGocfkwywF-22" style="edgeStyle=orthogonalEdgeStyle;rounded=0;orthogonalLoop=1;jettySize=auto;html=1;exitX=0.5;exitY=0.5;exitDx=0;exitDy=0;exitPerimeter=0;entryX=0;entryY=0.5;entryDx=0;entryDy=0;endArrow=none;endFill=0;" parent="1" source="macZc3DusFHGocfkwywF-1" target="macZc3DusFHGocfkwywF-21" edge="1">
                    <mxGeometry relative="1" as="geometry">
                        <Array as="points">
                            <mxPoint x="120" y="590"/>
                            <mxPoint x="120" y="850"/>
                        </Array>
                    </mxGeometry>
                </mxCell>
                <mxCell id="macZc3DusFHGocfkwywF-1" value="Пользователь" style="shape=umlActor;verticalLabelPosition=bottom;verticalAlign=top;html=1;outlineConnect=0;" parent="1" vertex="1">
                    <mxGeometry x="30" y="560" width="30" height="60" as="geometry"/>
                </mxCell>
                <mxCell id="macZc3DusFHGocfkwywF-28" style="edgeStyle=orthogonalEdgeStyle;rounded=0;orthogonalLoop=1;jettySize=auto;html=1;exitX=0.5;exitY=0.5;exitDx=0;exitDy=0;exitPerimeter=0;entryX=0;entryY=0.5;entryDx=0;entryDy=0;endArrow=none;endFill=0;" parent="1" source="macZc3DusFHGocfkwywF-3" target="macZc3DusFHGocfkwywF-26" edge="1">
                    <mxGeometry relative="1" as="geometry">
                        <Array as="points">
                            <mxPoint x="500" y="980"/>
                            <mxPoint x="500" y="780"/>
                        </Array>
                    </mxGeometry>
                </mxCell>
                <mxCell id="macZc3DusFHGocfkwywF-30" style="edgeStyle=orthogonalEdgeStyle;rounded=0;orthogonalLoop=1;jettySize=auto;html=1;exitX=0.5;exitY=0.5;exitDx=0;exitDy=0;exitPerimeter=0;endArrow=none;endFill=0;entryX=0;entryY=0.5;entryDx=0;entryDy=0;" parent="1" source="macZc3DusFHGocfkwywF-3" target="macZc3DusFHGocfkwywF-29" edge="1">
                    <mxGeometry relative="1" as="geometry">
                        <mxPoint x="550" y="1010" as="targetPoint"/>
                        <Array as="points">
                            <mxPoint x="555" y="980"/>
                            <mxPoint x="555" y="880"/>
                        </Array>
                    </mxGeometry>
                </mxCell>
                <mxCell id="macZc3DusFHGocfkwywF-3" value="Библиотекарь" style="shape=umlActor;verticalLabelPosition=bottom;verticalAlign=top;html=1;outlineConnect=0;" parent="1" vertex="1">
                    <mxGeometry x="450" y="950" width="30" height="60" as="geometry"/>
                </mxCell>
                <mxCell id="macZc3DusFHGocfkwywF-5" value="Ввод ID пользователя" style="ellipse;whiteSpace=wrap;html=1;" parent="1" vertex="1">
                    <mxGeometry x="360" y="460" width="120" height="80" as="geometry"/>
                </mxCell>
                <mxCell id="macZc3DusFHGocfkwywF-6" value="Сканирование штрих-кода " style="ellipse;whiteSpace=wrap;html=1;" parent="1" vertex="1">
                    <mxGeometry x="450" y="600" width="120" height="80" as="geometry"/>
                </mxCell>
                <mxCell id="macZc3DusFHGocfkwywF-17" style="edgeStyle=orthogonalEdgeStyle;rounded=0;orthogonalLoop=1;jettySize=auto;html=1;exitX=1;exitY=0;exitDx=0;exitDy=0;entryX=0.5;entryY=1;entryDx=0;entryDy=0;dashed=1;" parent="1" source="macZc3DusFHGocfkwywF-11" target="macZc3DusFHGocfkwywF-5" edge="1">
                    <mxGeometry relative="1" as="geometry">
                        <Array as="points">
                            <mxPoint x="332" y="560"/>
                            <mxPoint x="420" y="560"/>
                        </Array>
                    </mxGeometry>
                </mxCell>
                <mxCell id="macZc3DusFHGocfkwywF-25" value="&quot;include&quot;&amp;nbsp;" style="edgeLabel;html=1;align=center;verticalAlign=middle;resizable=0;points=[];" parent="macZc3DusFHGocfkwywF-17" vertex="1" connectable="0">
                    <mxGeometry x="0.0925" y="-3" relative="1" as="geometry">
                        <mxPoint x="-11" y="-3" as="offset"/>
                    </mxGeometry>
                </mxCell>
                <mxCell id="macZc3DusFHGocfkwywF-18" style="edgeStyle=orthogonalEdgeStyle;rounded=0;orthogonalLoop=1;jettySize=auto;html=1;entryX=0;entryY=0.5;entryDx=0;entryDy=0;dashed=1;" parent="1" source="macZc3DusFHGocfkwywF-11" target="macZc3DusFHGocfkwywF-6" edge="1">
                    <mxGeometry relative="1" as="geometry">
                        <mxPoint x="330" y="680" as="sourcePoint"/>
                        <Array as="points">
                            <mxPoint x="391" y="610"/>
                            <mxPoint x="391" y="640"/>
                        </Array>
                    </mxGeometry>
                </mxCell>
                <mxCell id="macZc3DusFHGocfkwywF-24" value="&quot;include&quot;&amp;nbsp;" style="edgeLabel;html=1;align=center;verticalAlign=middle;resizable=0;points=[];" parent="macZc3DusFHGocfkwywF-18" vertex="1" connectable="0">
                    <mxGeometry x="-0.4018" y="3" relative="1" as="geometry">
                        <mxPoint x="13" y="3" as="offset"/>
                    </mxGeometry>
                </mxCell>
                <mxCell id="macZc3DusFHGocfkwywF-11" value="Авторизация" style="ellipse;whiteSpace=wrap;html=1;" parent="1" vertex="1">
                    <mxGeometry x="230" y="550" width="120" height="80" as="geometry"/>
                </mxCell>
                <mxCell id="macZc3DusFHGocfkwywF-14" value="Просмотр&lt;br&gt;каталога книг" style="ellipse;whiteSpace=wrap;html=1;" parent="1" vertex="1">
                    <mxGeometry x="235.56" y="680" width="124.44" height="80" as="geometry"/>
                </mxCell>
                <mxCell id="macZc3DusFHGocfkwywF-21" value="Оплата заказа" style="ellipse;whiteSpace=wrap;html=1;" parent="1" vertex="1">
                    <mxGeometry x="160" y="810" width="124.44" height="80" as="geometry"/>
                </mxCell>
                <mxCell id="macZc3DusFHGocfkwywF-26" value="Оформление&lt;br&gt;абонемента" style="ellipse;whiteSpace=wrap;html=1;" parent="1" vertex="1">
                    <mxGeometry x="600" y="740" width="124.44" height="80" as="geometry"/>
                </mxCell>
                <mxCell id="macZc3DusFHGocfkwywF-29" value="Выдача заказа" style="ellipse;whiteSpace=wrap;html=1;" parent="1" vertex="1">
                    <mxGeometry x="630" y="840" width="124.44" height="80" as="geometry"/>
                </mxCell>
            </root>
        </mxGraphModel>
    </diagram>
</mxfile>